<svg xmlns="http://www.w3.org/2000/svg" viewBox="0 0 1200 900" role="img" aria-label="Cardio treadmill zone">
  <defs><linearGradient id="a" x1="0" y1="0" x2="1" y2="1"><stop stop-color="#070708"/><stop offset=".62" stop-color="#18181b"/><stop offset="1" stop-color="#4c0d0d"/></linearGradient></defs>
  <rect width="1200" height="900" fill="url(#a)"/>
  <path d="M0 650h1200v250H0z" fill="#09090b"/>
  <g fill="#18181b" stroke="#71717a" stroke-width="7">
    <rect x="125" y="485" width="230" height="110" rx="18"/><rect x="485" y="445" width="230" height="135" rx="18"/><rect x="845" y="485" width="230" height="110" rx="18"/>
    <path d="M155 595h230l-70 118H90zM520 580h230l-72 135H455zM875 595h230l-70 118H810z"/>
  </g>
  <g stroke="#ef4444" stroke-width="8" stroke-linecap="round"><path d="M170 525h140M530 505h140M890 525h140"/></g>
  <g fill="#ef4444" opacity=".55"><circle cx="600" cy="225" r="105"/><circle cx="250" cy="260" r="55"/><circle cx="955" cy="290" r="70"/></g>
</svg>
