<svg xmlns="http://www.w3.org/2000/svg" viewBox="0 0 1200 900" role="img" aria-label="Healthy diet and nutrition support">
  <defs><linearGradient id="a" x1="0" y1="0" x2="1" y2="1"><stop stop-color="#09090b"/><stop offset=".62" stop-color="#17171b"/><stop offset="1" stop-color="#4a0d0d"/></linearGradient></defs>
  <rect width="1200" height="900" fill="url(#a)"/>
  <rect y="650" width="1200" height="250" fill="#08080a"/>
  <ellipse cx="600" cy="610" rx="390" ry="95" fill="#27272a" stroke="#d4d4d8" stroke-width="8"/>
  <g fill="#ef4444"><circle cx="420" cy="535" r="64"/><circle cx="560" cy="500" r="48"/><circle cx="700" cy="530" r="58"/></g>
  <g fill="#22c55e"><path d="M450 470c42-56 95-44 118-12-45 6-82 21-118 12z"/><path d="M710 460c60-42 104-18 119 18-46-5-84-2-119-18z"/></g>
  <g stroke="#f8fafc" stroke-width="18" stroke-linecap="round"><path d="M320 690c92 56 462 64 645 0"/></g>
  <path d="M260 260h680" stroke="#ef4444" stroke-width="10" stroke-linecap="round" opacity=".55"/>
</svg>
