<svg xmlns="http://www.w3.org/2000/svg" viewBox="0 0 1200 900" role="img" aria-label="Dumbbell rack">
  <defs><linearGradient id="a" x1="0" y1="0" x2="1" y2="1"><stop stop-color="#09090b"/><stop offset=".7" stop-color="#16171b"/><stop offset="1" stop-color="#3c0a0a"/></linearGradient></defs>
  <rect width="1200" height="900" fill="url(#a)"/>
  <rect y="620" width="1200" height="280" fill="#08080a"/>
  <g stroke="#52525b" stroke-width="18" stroke-linecap="round"><path d="M130 590h940M160 710h880"/></g>
  <g fill="#27272a" stroke="#d4d4d8" stroke-width="5">
    <g transform="translate(175 520)"><rect x="0" y="25" width="95" height="38" rx="14"/><circle cx="-18" cy="44" r="26"/><circle cx="113" cy="44" r="26"/></g>
    <g transform="translate(365 500)"><rect x="0" y="25" width="120" height="42" rx="15"/><circle cx="-22" cy="46" r="31"/><circle cx="142" cy="46" r="31"/></g>
    <g transform="translate(590 488)"><rect x="0" y="25" width="140" height="46" rx="16"/><circle cx="-26" cy="48" r="36"/><circle cx="166" cy="48" r="36"/></g>
    <g transform="translate(845 505)"><rect x="0" y="25" width="110" height="40" rx="14"/><circle cx="-20" cy="45" r="29"/><circle cx="130" cy="45" r="29"/></g>
  </g>
  <path d="M160 790h880" stroke="#ef4444" stroke-width="8" stroke-linecap="round"/>
</svg>
