<svg xmlns="http://www.w3.org/2000/svg" viewBox="0 0 1600 1000" role="img" aria-label="Premium dark gym interior with red lights">
  <defs>
    <linearGradient id="bg" x1="0" y1="0" x2="1" y2="1">
      <stop offset="0" stop-color="#08090b"/>
      <stop offset="0.55" stop-color="#15171c"/>
      <stop offset="1" stop-color="#32090a"/>
    </linearGradient>
    <radialGradient id="light" cx="72%" cy="24%" r="48%">
      <stop offset="0" stop-color="#ef4444" stop-opacity=".58"/>
      <stop offset=".42" stop-color="#b91c1c" stop-opacity=".22"/>
      <stop offset="1" stop-color="#000" stop-opacity="0"/>
    </radialGradient>
    <filter id="soft"><feGaussianBlur stdDeviation="18"/></filter>
  </defs>
  <rect width="1600" height="1000" fill="url(#bg)"/>
  <rect width="1600" height="1000" fill="url(#light)"/>
  <path d="M0 720h1600v280H0z" fill="#07080a"/>
  <path d="M0 720h1600" stroke="#ef4444" stroke-opacity=".35" stroke-width="6"/>
  <g stroke="#3f3f46" stroke-width="10" opacity=".72">
    <path d="M160 710V300M330 710V240M500 710V290M1330 710V250M1450 710V310"/>
    <path d="M120 300h430M1260 250h250"/>
  </g>
  <g fill="#111217" stroke="#71717a" stroke-width="7">
    <rect x="210" y="540" width="230" height="120" rx="18"/>
    <rect x="1180" y="530" width="260" height="130" rx="18"/>
    <rect x="630" y="610" width="420" height="46" rx="23"/>
  </g>
  <g stroke="#ef4444" stroke-width="16" stroke-linecap="round">
    <path d="M680 510h320"/>
    <path d="M720 470v80M960 470v80"/>
  </g>
  <g fill="#d4d4d8" opacity=".9">
    <circle cx="660" cy="510" r="42"/>
    <circle cx="1020" cy="510" r="42"/>
    <circle cx="615" cy="510" r="24"/>
    <circle cx="1065" cy="510" r="24"/>
  </g>
  <g filter="url(#soft)" opacity=".38">
    <ellipse cx="790" cy="760" rx="520" ry="70" fill="#ef4444"/>
  </g>
  <g fill="#ffffff" opacity=".08">
    <rect x="0" y="0" width="1600" height="80"/>
    <rect x="90" y="80" width="10" height="650"/>
    <rect x="1510" y="80" width="10" height="650"/>
  </g>
</svg>
